<svg xmlns="http://www.w3.org/2000/svg" width="200" height="200" viewBox="0 0 200 200"><path d="M100.048 199.596C44.88 199.596 0 154.716 0 99.548S44.88-.5 100.048-.5 200.096 44.38 200.096 99.548s-44.88 100.048-100.048 100.048zm0-144.736c-24.684 0-44.688 20.004-44.688 44.688s20.004 44.688 44.688 44.688 44.688-20.005 44.688-44.688S124.73 54.86 100.048 54.86z"/><path d="M100.048 136.644c-20.453 0-37.09-16.644-37.09-37.096 0-20.453 16.637-37.096 37.09-37.096 20.452 0 37.09 16.643 37.09 37.096 0 20.452-16.638 37.096-37.09 37.096z"/></svg>