<?xml version="1.0" encoding="utf-8"?>
<!-- Generator: Adobe Illustrator 16.0.4, SVG Export Plug-In . SVG Version: 6.00 Build 0)  -->
<!DOCTYPE svg PUBLIC "-//W3C//DTD SVG 1.1//EN" "http://www.w3.org/Graphics/SVG/1.1/DTD/svg11.dtd">
<svg version="1.1" id="Layer_1" xmlns="http://www.w3.org/2000/svg" xmlns:xlink="http://www.w3.org/1999/xlink" x="0px" y="0px"
	 width="200px" height="200px" viewBox="0 0 200 200" enable-background="new 0 0 200 200" xml:space="preserve">
<path d="M117.601,0.479c-0.283-0.638-0.737-0.638-1.023,0l-1.611,4.149c-0.283,0.638-0.3,1.734-0.3,2.45v30.658h-6.222V7.078
	c0-0.716-0.177-1.811-0.462-2.45l-1.8-4.148c-0.283-0.638-0.726-0.638-1.012,0l-1.688,4.149c-0.282,0.638-0.372,1.734-0.372,2.45
	v30.657h-6.223V7.078c0-0.716-0.098-1.811-0.381-2.45l-1.76-4.148c-0.282-0.638-0.707-0.638-0.991,0L92,4.628
	c-0.282,0.638-0.444,1.734-0.444,2.45v30.658h-6.222V7.078c0-0.716-0.016-1.811-0.298-2.45L83.316,0.48
	c-0.283-0.638-0.685-0.638-0.969,0l-1.832,4.147C80.233,5.266,80,6.362,80,7.078v40.687c0,1.778,0.654,4.528,1.354,6.117
	L91.556,76.83v116.255c0,3.55,2.464,6.915,5.596,6.915h5.697c3.131,0,5.596-3.366,5.596-6.915V76.828l10.199-22.946
	c0.703-1.588,1.356-4.338,1.356-6.117V7.078c0-0.716-0.26-1.811-0.542-2.45L117.601,0.479z"/>
</svg>
